<mxfile host="app.diagrams.net" agent="Mozilla/5.0 (Windows NT 10.0; Win64; x64) AppleWebKit/537.36 (KHTML, like Gecko) Chrome/134.0.0.0 Safari/537.36" version="26.1.1">
  <diagram name="Página-1" id="6q-TrOmSGzsbydMr_y02">
    <mxGraphModel grid="1" page="1" gridSize="10" guides="1" tooltips="1" connect="1" arrows="1" fold="1" pageScale="1" pageWidth="827" pageHeight="1169" math="0" shadow="0">
      <root>
        <mxCell id="0" />
        <mxCell id="1" parent="0" />
        <mxCell id="Chc0_6wjLXFU2LDT93dq-3" value="" style="edgeStyle=orthogonalEdgeStyle;rounded=0;orthogonalLoop=1;jettySize=auto;html=1;" edge="1" parent="1" source="Chc0_6wjLXFU2LDT93dq-1" target="Chc0_6wjLXFU2LDT93dq-2">
          <mxGeometry relative="1" as="geometry" />
        </mxCell>
        <mxCell id="Chc0_6wjLXFU2LDT93dq-1" value="inicio" style="ellipse;whiteSpace=wrap;html=1;fillColor=#f8cecc;strokeColor=#b85450;" vertex="1" parent="1">
          <mxGeometry x="350" y="40" width="120" height="80" as="geometry" />
        </mxCell>
        <mxCell id="Chc0_6wjLXFU2LDT93dq-5" value="" style="edgeStyle=orthogonalEdgeStyle;rounded=0;orthogonalLoop=1;jettySize=auto;html=1;" edge="1" parent="1" source="Chc0_6wjLXFU2LDT93dq-2" target="Chc0_6wjLXFU2LDT93dq-4">
          <mxGeometry relative="1" as="geometry" />
        </mxCell>
        <mxCell id="Chc0_6wjLXFU2LDT93dq-2" value="valor=2500&lt;div&gt;impostos=valor * 45/100&lt;/div&gt;&lt;div&gt;distribuição= (valor + impostos) *28/100&lt;/div&gt;&lt;div&gt;&lt;br&gt;&lt;/div&gt;" style="shape=parallelogram;perimeter=parallelogramPerimeter;whiteSpace=wrap;html=1;fixedSize=1;fillColor=#fff2cc;strokeColor=#d6b656;" vertex="1" parent="1">
          <mxGeometry x="240" y="150" width="340" height="60" as="geometry" />
        </mxCell>
        <mxCell id="Chc0_6wjLXFU2LDT93dq-9" value="" style="edgeStyle=orthogonalEdgeStyle;rounded=0;orthogonalLoop=1;jettySize=auto;html=1;" edge="1" parent="1" source="Chc0_6wjLXFU2LDT93dq-4" target="Chc0_6wjLXFU2LDT93dq-8">
          <mxGeometry relative="1" as="geometry" />
        </mxCell>
        <mxCell id="Chc0_6wjLXFU2LDT93dq-4" value="valor_final =&amp;nbsp;&lt;div&gt;valor + impostos = distribuição&lt;/div&gt;" style="whiteSpace=wrap;html=1;fillColor=#e3c800;strokeColor=#B09500;fontColor=#000000;" vertex="1" parent="1">
          <mxGeometry x="315" y="230" width="190" height="60" as="geometry" />
        </mxCell>
        <mxCell id="Chc0_6wjLXFU2LDT93dq-11" value="" style="edgeStyle=orthogonalEdgeStyle;rounded=0;orthogonalLoop=1;jettySize=auto;html=1;" edge="1" parent="1" source="Chc0_6wjLXFU2LDT93dq-8" target="Chc0_6wjLXFU2LDT93dq-10">
          <mxGeometry relative="1" as="geometry" />
        </mxCell>
        <mxCell id="Chc0_6wjLXFU2LDT93dq-8" value="valor_final" style="shape=document;whiteSpace=wrap;html=1;boundedLbl=1;fillColor=#cce5ff;strokeColor=#36393d;" vertex="1" parent="1">
          <mxGeometry x="350" y="320" width="120" height="80" as="geometry" />
        </mxCell>
        <mxCell id="Chc0_6wjLXFU2LDT93dq-10" value="fim" style="ellipse;whiteSpace=wrap;html=1;fillColor=#e1d5e7;strokeColor=#9673a6;" vertex="1" parent="1">
          <mxGeometry x="350" y="440" width="120" height="80" as="geometry" />
        </mxCell>
      </root>
    </mxGraphModel>
  </diagram>
</mxfile>
